<svg width="78" height="46" viewBox="0 0 78 46" fill="none" xmlns="http://www.w3.org/2000/svg">
<path d="M8.53125 4.71875C8.53125 5.52224 8.29299 6.30768 7.8466 6.97576C7.4002 7.64383 6.76573 8.16453 6.0234 8.47201C5.28108 8.7795 4.46425 8.85995 3.6762 8.70319C2.88815 8.54644 2.16428 8.15952 1.59613 7.59137C1.02798 7.02322 0.641064 6.29936 0.484312 5.51131C0.327559 4.72326 0.40801 3.90642 0.715491 3.1641C1.02297 2.42177 1.54367 1.7873 2.21175 1.34091C2.87982 0.894514 3.66527 0.656252 4.46875 0.656252C5.54619 0.656263 6.5795 1.08428 7.34136 1.84614C8.10323 2.60801 8.53124 3.64131 8.53125 4.71875ZM39 0.656252C38.1965 0.656252 37.4111 0.894514 36.743 1.34091C36.0749 1.7873 35.5542 2.42177 35.2467 3.1641C34.9393 3.90642 34.8588 4.72326 35.0156 5.51131C35.1723 6.29936 35.5592 7.02322 36.1274 7.59137C36.6955 8.15952 37.4194 8.54644 38.2075 8.70319C38.9955 8.85995 39.8123 8.7795 40.5547 8.47201C41.297 8.16453 41.9315 7.64383 42.3779 6.97576C42.8242 6.30768 43.0625 5.52224 43.0625 4.71875C43.0625 4.18525 42.9575 3.65698 42.7533 3.16408C42.5491 2.67119 42.2499 2.22334 41.8727 1.8461C41.4954 1.46886 41.0476 1.16961 40.5547 0.96546C40.0618 0.761306 39.5335 0.656237 39 0.656252ZM73.5312 8.78125C74.3347 8.78125 75.1202 8.54299 75.7883 8.0966C76.4563 7.65021 76.977 7.01573 77.2845 6.27341C77.592 5.53108 77.6724 4.71425 77.5157 3.9262C77.3589 3.13815 76.972 2.41428 76.4039 1.84613C75.8357 1.27798 75.1119 0.891064 74.3238 0.734312C73.5358 0.577559 72.7189 0.65801 71.9766 0.965491C71.2343 1.27297 70.5998 1.79367 70.1534 2.46175C69.707 3.12982 69.4688 3.91527 69.4688 4.71875C69.4688 5.79619 69.8968 6.8295 70.6586 7.59136C71.4205 8.35323 72.4538 8.78124 73.5312 8.78125ZM4.46875 37.2188C3.66527 37.2188 2.87982 37.457 2.21175 37.9034C1.54367 38.3498 1.02297 38.9843 0.715491 39.7266C0.40801 40.4689 0.327559 41.2858 0.484312 42.0738C0.641064 42.8619 1.02798 43.5857 1.59613 44.1539C2.16428 44.722 2.88815 45.109 3.6762 45.2657C4.46425 45.4225 5.28108 45.342 6.0234 45.0345C6.76573 44.727 7.4002 44.2063 7.8466 43.5383C8.29299 42.8702 8.53125 42.0847 8.53125 41.2813C8.53127 40.7478 8.4262 40.2195 8.22204 39.7266C8.01789 39.2337 7.71865 38.7858 7.34141 38.4086C6.96417 38.0314 6.51631 37.7321 6.02342 37.528C5.53053 37.3238 5.00225 37.2187 4.46875 37.2188ZM39 37.2188C38.1965 37.2188 37.4111 37.457 36.743 37.9034C36.0749 38.3498 35.5542 38.9843 35.2467 39.7266C34.9393 40.4689 34.8588 41.2858 35.0156 42.0738C35.1723 42.8619 35.5592 43.5857 36.1274 44.1539C36.6955 44.722 37.4194 45.109 38.2075 45.2657C38.9955 45.4225 39.8123 45.342 40.5547 45.0345C41.297 44.727 41.9315 44.2063 42.3779 43.5383C42.8242 42.8702 43.0625 42.0847 43.0625 41.2813C43.0625 40.7478 42.9575 40.2195 42.7533 39.7266C42.5491 39.2337 42.2499 38.7858 41.8727 38.4086C41.4954 38.0314 41.0476 37.7321 40.5547 37.528C40.0618 37.3238 39.5335 37.2187 39 37.2188ZM73.5312 37.2188C72.7278 37.2188 71.9423 37.457 71.2742 37.9034C70.6062 38.3498 70.0855 38.9843 69.778 39.7266C69.4705 40.4689 69.3901 41.2858 69.5468 42.0738C69.7036 42.8619 70.0905 43.5857 70.6586 44.1539C71.2268 44.722 71.9506 45.109 72.7387 45.2657C73.5267 45.4225 74.3436 45.342 75.0859 45.0345C75.8282 44.727 76.4627 44.2063 76.9091 43.5383C77.3555 42.8702 77.5938 42.0847 77.5938 41.2813C77.5938 40.7478 77.4887 40.2195 77.2845 39.7266C77.0804 39.2337 76.7811 38.7858 76.4039 38.4086C76.0267 38.0314 75.5788 37.7321 75.0859 37.528C74.593 37.3238 74.0648 37.2187 73.5312 37.2188Z" fill="#4B5563"/>
</svg>
