<svg width="56" height="52" viewBox="0 0 56 52" fill="none" xmlns="http://www.w3.org/2000/svg">
<path d="M55.7376 35.6983C55.6834 35.5007 55.5277 35.346 55.3289 35.2918L50.0012 33.8659L49.9689 8.24305C49.9689 8.05446 49.8763 7.87837 49.7215 7.76991C49.6785 7.73962 49.6272 7.73164 49.5787 7.71464L49.586 7.68978L25.3048 0.589714C25.1986 0.558149 25.0857 0.558149 24.9796 0.589714L0.760831 7.67151C0.74765 7.67302 0.736319 7.68007 0.723369 7.6825L0.698394 7.68978L0.698972 7.69186C0.628672 7.70851 0.55814 7.72771 0.497321 7.76991C0.341459 7.87837 0.25 8.05562 0.25 8.24525L0.282722 37.2001C0.282722 38.3935 1.03243 39.481 2.14926 39.9044L24.9378 48.5379C25.0032 48.5628 25.0733 48.5751 25.1422 48.5751C25.2111 48.5751 25.2811 48.5628 25.3466 48.5379L33.6903 45.3768L32.7912 50.7681C32.7573 50.968 32.8319 51.1711 32.9864 51.3022C33.0926 51.3936 33.2258 51.441 33.3613 51.441C33.4234 51.441 33.4843 51.4308 33.5454 51.4105L42.4092 48.4408L51.2742 51.4105C51.4673 51.4737 51.6772 51.4354 51.8331 51.302C51.9878 51.171 52.0623 50.9678 52.0284 50.768L50.4758 41.4592L55.5919 36.2561C55.7365 36.1093 55.7919 35.8971 55.7376 35.6983ZM25.1421 1.74585L47.5588 8.30086L37.2003 12.108L16.434 4.29226L25.1421 1.74585ZM25.1421 16.54L2.69096 8.31092L14.588 4.832L35.5406 12.7181L25.1421 16.54ZM1.43897 37.1989L1.40741 9.07173L24.5312 17.5474V47.1468L2.55915 38.8226C1.88956 38.5686 1.43897 37.9171 1.43897 37.1989ZM25.6875 47.1717V17.5716L48.8137 9.07185L48.8445 33.5564L47.3762 33.1634L42.8934 26.2574C42.6811 25.93 42.1369 25.93 41.9246 26.2574L37.443 33.1634L29.4904 35.2918C29.2916 35.346 29.1359 35.5007 29.0817 35.6983C29.0274 35.8971 29.0828 36.1094 29.2274 36.2561L34.3435 41.4592L33.9103 44.0567L25.6875 47.1717ZM49.4449 40.8586C49.315 40.9907 49.2563 41.177 49.2868 41.3587L50.7298 50.0091L42.5931 47.2834C42.5333 47.263 42.4712 47.2528 42.4091 47.2528C42.347 47.2528 42.2849 47.263 42.225 47.2834L34.0895 50.0091L35.5325 41.3587C35.563 41.177 35.5043 40.9906 35.3744 40.8586L30.7471 36.1523L37.9557 34.2236C38.0945 34.1864 38.2142 34.0995 38.291 33.9798L42.409 27.6339L46.5281 33.9798C46.6049 34.0995 46.7245 34.1864 46.8634 34.2236L54.0719 36.1523L49.4449 40.8586Z" fill="black"/>
</svg>
