<svg width="54" height="53" viewBox="0 0 54 53" fill="none" xmlns="http://www.w3.org/2000/svg">
<path d="M49.8111 31.0947C52.0061 27.3968 52.6181 20.7889 53.2099 14.398C53.3319 13.0746 53.4549 11.7501 53.5904 10.4504C53.6073 10.2878 53.5554 10.1253 53.4447 10.0033C53.3352 9.88245 53.1794 9.8125 53.0156 9.8125H4.36224C3.98854 7.98262 3.69486 6.69467 3.53506 6.27599C2.58543 3.78393 1.40999 3.03306 1.27899 2.95513C1.00345 2.79476 0.659122 2.88402 0.494241 3.15389C0.330516 3.42376 0.415153 3.77722 0.682825 3.9465C0.691843 3.95216 1.65049 4.57654 2.45559 6.68692C3.03371 8.20566 5.96608 24.4507 7.73098 34.9676C8.43328 39.159 12.0297 42.201 16.2832 42.201H16.2855L50.7031 42.1875C51.0227 42.1875 51.2812 41.929 51.2812 41.6094C51.2812 41.2898 51.0227 41.0312 50.7031 41.0312L16.2855 41.0448H16.2832C12.5976 41.0448 9.48004 38.4082 8.87139 34.7757C8.83439 34.5553 8.79554 34.3252 8.75657 34.0938H44.408C46.6438 34.0938 48.7146 32.9443 49.8111 31.0947ZM48.8174 30.5052C47.9265 32.0059 46.2373 32.9374 44.408 32.9374H39.1587L41.2907 22.5311H51.1381C50.6483 25.7439 49.9566 28.5842 48.8174 30.5052ZM28.1562 21.3749H17.0722L14.9396 10.9686H28.1562V21.3749ZM29.3125 10.9686H42.4784L40.3464 21.3749H29.3125V10.9686ZM28.1562 22.5311V32.9374H19.4417L17.3091 22.5311H28.1562ZM29.3125 22.5311H40.1094L37.9774 32.9374H29.3125V22.5311ZM52.0581 14.2917C51.8367 16.6818 51.6118 19.1016 51.3046 21.3749H41.5277L43.6597 10.9686H52.3754C52.2636 12.0661 52.1609 13.1795 52.0581 14.2917ZM13.7583 10.9686L15.8909 21.3749H6.53819C5.84664 17.5262 5.15347 13.784 4.59511 10.9686H13.7583ZM6.74539 22.5311H16.1279L18.2605 32.9374H8.56105C8.04964 29.9294 7.4048 26.2217 6.74539 22.5311ZM22.3751 43.3436C19.8243 43.3436 17.7501 45.4178 17.7501 47.9686C17.7501 50.5194 19.8243 52.5936 22.3751 52.5936C24.9259 52.5936 27.0001 50.5194 27.0001 47.9686C27.0001 45.4178 24.9259 43.3436 22.3751 43.3436ZM22.3751 51.4374C20.4623 51.4374 18.9064 49.8814 18.9064 47.9686C18.9064 46.0559 20.4623 44.4999 22.3751 44.4999C24.2879 44.4999 25.8439 46.0559 25.8439 47.9686C25.8439 49.8814 24.2879 51.4374 22.3751 51.4374ZM40.8751 43.3436C38.3243 43.3436 36.2501 45.4178 36.2501 47.9686C36.2501 50.5194 38.3243 52.5936 40.8751 52.5936C43.4259 52.5936 45.5001 50.5194 45.5001 47.9686C45.5001 45.4178 43.4259 43.3436 40.8751 43.3436ZM40.8751 51.4374C38.9623 51.4374 37.4064 49.8814 37.4064 47.9686C37.4064 46.0559 38.9623 44.4999 40.8751 44.4999C42.7879 44.4999 44.3439 46.0559 44.3439 47.9686C44.3439 49.8814 42.7879 51.4374 40.8751 51.4374ZM16.5938 5.76562C16.5938 5.44604 16.8523 5.1875 17.1719 5.1875H48.3906C48.7102 5.1875 48.9688 5.44604 48.9688 5.76562C48.9688 6.08521 48.7102 6.34375 48.3906 6.34375H17.1719C16.8523 6.34375 16.5938 6.08521 16.5938 5.76562ZM23.5312 1.14062C23.5312 0.821038 23.7898 0.5625 24.1094 0.5625H43.7656C44.0852 0.5625 44.3438 0.821038 44.3438 1.14062C44.3438 1.46021 44.0852 1.71875 43.7656 1.71875H24.1094C23.7898 1.71875 23.5312 1.46021 23.5312 1.14062ZM0.40625 40.4531C0.40625 40.1335 0.664788 39.875 0.984375 39.875H5.60938C5.92896 39.875 6.1875 40.1335 6.1875 40.4531C6.1875 40.7727 5.92896 41.0312 5.60938 41.0312H0.984375C0.664788 41.0312 0.40625 40.7727 0.40625 40.4531ZM11.9688 45.0781C11.9688 45.3977 11.7102 45.6562 11.3906 45.6562H0.984375C0.664788 45.6562 0.40625 45.3977 0.40625 45.0781C0.40625 44.7585 0.664788 44.5 0.984375 44.5H11.3906C11.7102 44.5 11.9688 44.7585 11.9688 45.0781ZM11.9688 49.7031C11.9688 50.0227 11.7102 50.2812 11.3906 50.2812H5.60938C5.28979 50.2812 5.03125 50.0227 5.03125 49.7031C5.03125 49.3835 5.28979 49.125 5.60938 49.125H11.3906C11.7102 49.125 11.9688 49.3835 11.9688 49.7031Z" fill="black"/>
</svg>
