<svg width="58" height="36" viewBox="0 0 58 36" fill="none" xmlns="http://www.w3.org/2000/svg">
<path d="M56.5563 1.4755C56.0267 0.945355 55.3215 0.653519 54.5724 0.653519C54.5724 0.653519 20.5888 0.643921 20.5731 0.643921H20.5713C20.5644 0.643921 20.5587 0.647622 20.5519 0.647853L2.93749 0.652941C2.18778 0.653519 1.48316 0.945355 0.953018 1.4755C0.423456 2.00621 0.131618 2.71083 0.132081 3.45997L0.133815 11.5684C0.133815 11.749 0.21799 11.919 0.361365 12.0285C0.50474 12.1374 0.69055 12.1736 0.86549 12.1256C1.26301 12.0161 1.6559 11.9607 2.03192 11.9607H2.03365C3.38519 11.9607 4.66169 12.5784 5.62716 13.7002C6.6146 14.8474 7.15884 16.3779 7.15942 18.0101C7.16 19.6428 6.61691 21.1745 5.62993 22.3218C4.66447 23.4447 3.38797 24.0634 2.03527 24.0634H2.03018C1.65475 24.0634 1.26405 24.008 0.87 23.8991C0.693903 23.8494 0.508672 23.8872 0.365875 23.9962C0.221922 24.1057 0.137746 24.2757 0.137746 24.4563L0.140059 32.5506C0.140059 33.3004 0.431897 34.005 0.962615 34.5351C1.49218 35.0647 2.19622 35.356 2.94535 35.356H2.94651L54.5724 35.3465C55.3215 35.3465 56.0267 35.0546 56.5563 34.5245C57.0864 33.9938 57.3783 33.2891 57.3777 32.54V3.45997C57.3783 2.71083 57.0863 2.00621 56.5563 1.4755ZM56.2214 32.5401C56.2214 32.981 56.0504 33.3954 55.7387 33.7071C55.427 34.0188 55.0127 34.1904 54.5723 34.1904L24.9055 34.2C24.1586 34.2 23.5127 33.7055 23.3157 32.9907L23.218 28.9591C23.2096 28.6395 22.9493 28.3691 22.6258 28.3951C22.3068 28.4029 22.0545 28.6677 22.0617 28.9873L22.159 32.9978C21.9792 33.666 21.4093 34.1283 20.7295 34.1944L2.94639 34.2H2.94524C2.50482 34.2 2.091 34.0284 1.77939 33.7173C1.46778 33.4057 1.29608 32.9919 1.29608 32.5509L1.29377 25.1674C1.54167 25.2024 1.78772 25.2199 2.02937 25.2199H2.03561C3.73045 25.2193 5.31809 24.4583 6.50649 23.0756C7.67349 21.7184 8.3159 19.9196 8.31544 18.0102C8.31498 16.1008 7.67129 14.3027 6.50313 12.946C5.31474 11.565 3.72709 10.8045 2.034 10.8045H2.03168C1.78783 10.8045 1.53993 10.8225 1.28983 10.8581L1.2881 3.45997C1.2881 3.01909 1.45911 2.60469 1.77083 2.29297C2.08256 1.98124 2.49684 1.80907 2.93726 1.80907L20.5961 1.80399C21.3353 1.81462 21.9662 2.30973 22.1585 3.02152L22.0617 7.01266C22.0545 7.33225 22.3068 7.59703 22.6258 7.60489C22.9741 7.62802 23.2101 7.35988 23.218 7.04087L23.3151 3.03216C23.3421 2.92936 23.3924 2.83987 23.4368 2.74679C23.4699 2.6773 23.4916 2.60053 23.5335 2.53716C23.5926 2.4479 23.6724 2.37783 23.7468 2.30256C23.7974 2.25134 23.838 2.19029 23.8948 2.14635C23.987 2.0749 24.0956 2.02842 24.2016 1.97777C24.257 1.95129 24.3046 1.91186 24.363 1.89163C24.5336 1.83266 24.7158 1.79994 24.905 1.79994L54.5723 1.80954C55.0127 1.80954 55.4271 1.98112 55.7387 2.29285C56.0503 2.60457 56.2214 3.01886 56.2214 3.45985V32.5401ZM23.2175 19.7344L23.2187 24.3594C23.2187 24.6784 22.9602 24.9375 22.6406 24.9375C22.3216 24.9375 22.0624 24.679 22.0624 24.3594L22.0613 19.7344C22.0613 19.4154 22.3198 19.1563 22.6394 19.1563C22.9584 19.1563 23.2175 19.4148 23.2175 19.7344ZM23.2175 11.6407L23.2187 16.2657C23.2187 16.5847 22.9602 16.8438 22.6406 16.8438C22.3216 16.8438 22.0624 16.5853 22.0624 16.2657L22.0613 11.6407C22.0613 11.3217 22.3198 11.0625 22.6394 11.0625C22.9584 11.0625 23.2175 11.3211 23.2175 11.6407ZM37.4997 12.7822L29.8017 23.8818C29.6899 24.0432 29.5093 24.1301 29.3264 24.1301C29.2129 24.1301 29.0976 24.0968 28.9972 24.0268C28.7352 23.845 28.6697 23.4847 28.8521 23.2222L36.55 12.1227C36.7318 11.8613 37.0921 11.7953 37.3545 11.9776C37.6166 12.1594 37.682 12.5198 37.4997 12.7822ZM29.7073 15.6897C28.751 15.6897 27.973 14.9117 27.973 13.9559C27.9724 13.493 28.1525 13.0572 28.4806 12.7297C28.808 12.4017 29.2433 12.2211 29.7068 12.2211C30.6626 12.2211 31.4411 12.9986 31.4417 13.9543C31.4417 14.9107 30.6637 15.6897 29.7073 15.6897ZM38.3792 22.048C38.3792 23.0043 37.6012 23.7835 36.6448 23.7835C35.6885 23.7835 34.9105 23.0054 34.9105 22.0497C34.9099 21.5867 35.09 21.1509 35.4181 20.8235C35.7455 20.4955 36.1808 20.3149 36.6443 20.3149C37.6001 20.3149 38.3786 21.0922 38.3792 22.048ZM53.2812 10.4809C53.2812 10.8 53.0227 11.0591 52.7031 11.0591L42.2968 11.0624C41.9778 11.0624 41.7187 10.8039 41.7187 10.4843C41.7187 10.1653 41.9772 9.90618 42.2968 9.90618L52.7031 9.90282C53.0221 9.90282 53.2812 10.1614 53.2812 10.4809ZM53.2812 17.9983C53.2812 18.3173 53.0227 18.5764 52.7031 18.5764L42.2968 18.5798C41.9778 18.5798 41.7187 18.3212 41.7187 18.0017C41.7187 17.6827 41.9772 17.4235 42.2968 17.4235L52.7031 17.4202C53.0221 17.4202 53.2812 17.6787 53.2812 17.9983ZM53.2812 25.5122C53.2812 25.8312 53.0227 26.0903 52.7031 26.0903L42.2968 26.0937C41.9778 26.0937 41.7187 25.8351 41.7187 25.5156C41.7187 25.1965 41.9772 24.9374 42.2968 24.9374L52.7031 24.9341C53.0221 24.9341 53.2812 25.1926 53.2812 25.5122Z" fill="black"/>
</svg>
